PathFileType	4	(X/Y/Z)	/Users/itak/Documents/Research/Walk-IL/dataset/trc/00409_00012.trc
DataRate	CameraRate	NumFrames	NumMarkers	Units	OrigDataRate	OrigDataStartFrame	OrigNumFrames
100.000000	100.000000	4	56	mm	100.000000	250	667
Frame#	Time	RPSI			LPSI			L3			STRN			T10			C7			CLAV			RBAK			LBAK			LSHO			LUPA			LAEL			LAOL			LWTS			LWPS			LFRA			LHPS			LHTS			RSHO			RUPA			RAEL			RAOL			RWTS			RWPS			RFRA			RIFD			RHTS			RHPS			RBHD			LFHD			RFHD			LBHD			LHIP			RHIP			RASI			LASI			LKNE			LTHI			LANK			LTIP			LTOE			LMT1			LMT5			LHEE			RKNE			RTHI			RANK			RTIP			RTOE			RMT5			RHEE			LIFD			RMT1			*53			*54			*55			
		X1	Y1	Z1	X2	Y2	Z2	X3	Y3	Z3	X4	Y4	Z4	X5	Y5	Z5	X6	Y6	Z6	X7	Y7	Z7	X8	Y8	Z8	X9	Y9	Z9	X10	Y10	Z10	X11	Y11	Z11	X12	Y12	Z12	X13	Y13	Z13	X14	Y14	Z14	X15	Y15	Z15	X16	Y16	Z16	X17	Y17	Z17	X18	Y18	Z18	X19	Y19	Z19	X20	Y20	Z20	X21	Y21	Z21	X22	Y22	Z22	X23	Y23	Z23	X24	Y24	Z24	X25	Y25	Z25	X26	Y26	Z26	X27	Y27	Z27	X28	Y28	Z28	X29	Y29	Z29	X30	Y30	Z30	X31	Y31	Z31	X32	Y32	Z32	X33	Y33	Z33	X34	Y34	Z34	X35	Y35	Z35	X36	Y36	Z36	X37	Y37	Z37	X38	Y38	Z38	X39	Y39	Z39	X40	Y40	Z40	X41	Y41	Z41	X42	Y42	Z42	X43	Y43	Z43	X44	Y44	Z44	X45	Y45	Z45	X46	Y46	Z46	X47	Y47	Z47	X48	Y48	Z48	X49	Y49	Z49	X50	Y50	Z50	X51	Y51	Z51	X52	Y52	Z52	X53	Y53	Z53	X54	Y54	Z54	X55	Y55	Z55	X56	Y56	Z56	

251	2.5	-921.308349609375	951.5145263671875	66.56888580322266	-1046.788696289062	949.422119140625	21.70841407775879	-974.41015625	1032.959594726562	50.6131706237793	-862.7374267578125	1183.247924804688	-172.7988433837891	-975.5634765625	1138.416748046875	58.90930938720703	-946.8056640625	1385.048583984375	14.94209384918213	-878.1741943359375	1302.999389648438	-122.9219970703125	-915.3231201171875	1238.458740234375	85.94326019287109	-1045.706665039062	1356.195434570312	-14.68498611450195	-1054.975463867188	1370.586547851562	-114.7115859985352	-1143.1396484375	1270.012573242188	-98.51621246337891	-1194.6513671875	1079.418334960938	-75.52320861816406	-1157.817749023438	1069.62890625	1.598327994346619	-1161.826904296875	843.564208984375	-81.37999725341797	-1242.065063476562	853.5512084960938	-64.23788452148438	-1219.231689453125	977.3463134765625	-68.90000152587891	-1247.288940429688	768.7559204101562	-42.06217575073242	-1192.31201171875	746.8535766601562	-68.41590118408203	-785.352783203125	1357.769409179688	35.29947280883789	-742.165771484375	1294.157104492188	78.94989013671875	-683.038330078125	1034.961059570312	93.66500854492188	-772.7457885742188	1016.029052734375	70.75526428222656	-623.2235717773438	948.5922241210938	-127.8060302734375	-575.1898193359375	911.2365112304688	-85.62418365478516	-647.13427734375	993.2813110351562	51.8891716003418	-573.6812744140625	823.700439453125	-240.2198791503906	-574.1627197265625	885.3840942382812	-200.7504577636719	-554.8709106445312	849.6019897460938	-145.1584014892578	-856.94482421875	1561.007690429688	31.04911804199219	-878.2163696289062	1578.623413085938	-166.8347625732422	-789.5234985351562	1570.596557617188	-84.38388824462891	-984.7716064453125	1569.546875	-64.2130126953125	-1113.023193359375	952.3682861328125	-104.0077209472656	-785.9990234375	918.8242797851562	34.51058578491211	-780.8045043945312	931.951416015625	-109.293098449707	-1029.816650390625	952.3771362304688	-192.8302917480469	-1054.105346679688	510.0454406738281	-328.8818359375	-1075.926391601562	631.3912353515625	-266.3381042480469	-1111.122192382812	55.64019775390625	-333.8252563476562	-1099.272216796875	277.0569763183594	-337.7809448242188	-988.747314453125	91.73024749755859	-509.7784729003906	-981.2726440429688	72.51935577392578	-428.8948669433594	-1084.502319335938	72.11618804931641	-456.5939331054688	-1070.483276367188	42.32876205444336	-281.4449462890625	-901.6517944335938	436.9455871582031	-27.92773628234863	-803.687255859375	685.28662109375	-51.01073837280273	-1033.73876953125	53.21929168701172	68.89612579345703	-949.4820556640625	315.6611328125	-30.35871124267578	-1090.487182617188	40.19274520874023	-113.2528991699219	-1026.047729492188	48.08449554443359	-13.58064270019531	-1091.149658203125	47.35465240478516	140.7520904541016	-1202.456909179688	680.0645751953125	-13.35299396514893	-1111.447387695312	57.92856216430664	-46.31737899780273	nan	nan	nan	nan	nan	nan	nan	nan	nan	
252	2.51	-921.336181640625	949.6152954101562	56.77190399169922	-1045.8447265625	947.6849365234375	9.163107872009277	-974.1595458984375	1030.932006835938	39.92065811157227	-859.0079345703125	1181.136108398438	-181.6590881347656	-975.251708984375	1136.495849609375	48.36496734619141	-945.528564453125	1383.064575195312	4.677170753479004	-874.9652099609375	1300.905883789062	-132.2328338623047	-915.0223388671875	1236.478393554688	76.26483154296875	-1043.983520507812	1354.384399414062	-26.23123359680176	-1051.865600585938	1368.587158203125	-126.4425354003906	-1140.262817382812	1268.439697265625	-110.4040832519531	-1192.37548828125	1078.136352539062	-85.94227600097656	-1156.24560546875	1069.095581054688	-8.508011817932129	-1159.581665039062	842.2879028320312	-89.87004089355469	-1239.88671875	852.2218627929688	-73.36521911621094	-1217.11474609375	976.0708618164062	-78.7286376953125	-1244.758056640625	767.4541625976562	-50.63855361938477	-1189.877807617188	745.6306762695312	-76.68367767333984	-784.3834838867188	1355.610229492188	27.40724754333496	-741.7868041992188	1291.785400390625	71.59458923339844	-681.9498291015625	1032.626586914062	85.51332855224609	-771.277099609375	1013.487365722656	61.56734085083008	-618.8473510742188	949.79541015625	-136.1213531494141	-570.8748168945312	912.4366455078125	-93.8154296875	-645.3367919921875	991.87109375	43.84272766113281	-566.5950317382812	826.7626953125	-249.2528228759766	-568.1890258789062	888.0095825195312	-209.1792602539062	-549.2843017578125	851.7183837890625	-153.7848968505859	-855.9745483398438	1559.042236328125	21.92960357666016	-875.081298828125	1576.630615234375	-176.2040100097656	-787.334716796875	1568.837158203125	-92.68734741210938	-982.7464599609375	1567.27392578125	-74.83174133300781	-1110.2099609375	950.261474609375	-117.4294128417969	-785.407470703125	916.9653930664062	27.06098365783691	-777.7584838867188	929.7952270507812	-116.6958160400391	-1025.262084960938	950.3212890625	-204.7168121337891	-1048.859985351562	506.9281005859375	-338.3870544433594	-1071.534790039062	628.6292724609375	-276.1431274414062	-1093.794067382812	51.46660614013672	-366.383056640625	-1088.225952148438	273.879638671875	-358.5018310546875	-965.6211547851562	98.64309692382812	-535.5913696289062	-960.8961181640625	76.41169738769531	-455.3362731933594	-1062.548461914062	73.34580230712891	-487.2279968261719	-1054.924926757812	37.49040222167969	-312.8680725097656	-901.2586059570312	435.3934326171875	-34.44749450683594	-802.1845703125	683.3640747070312	-57.52323150634766	-1034.187255859375	53.58856201171875	68.64617919921875	-949.31591796875	313.9443664550781	-35.53684234619141	-1090.25048828125	39.92031860351562	-113.6019439697266	-1026.205688476562	48.12737655639648	-13.73356914520264	-1091.698120117188	48.54439926147461	140.5055999755859	-1200.3701171875	678.9830932617188	-21.54338455200195	-1112.948486328125	56.52655029296875	-45.74697113037109	nan	nan	nan	nan	nan	nan	nan	nan	nan	
253	2.52	-921.0843505859375	947.6515502929688	46.82538986206055	-1044.6376953125	945.8516845703125	-3.32233738899231	-973.5824584960938	1028.829711914062	29.07627487182617	-855.1605224609375	1178.989501953125	-190.5690155029297	-974.6386108398438	1134.437866210938	37.57416915893555	-944.1304931640625	1381.006713867188	-5.618930339813232	-871.654541015625	1298.791870117188	-141.6087951660156	-914.5514526367188	1234.404907226562	66.48648834228516	-1042.138671875	1352.480102539062	-37.8004035949707	-1048.64111328125	1366.488159179688	-138.1784820556641	-1137.230590820312	1266.7080078125	-122.3544387817383	-1189.957275390625	1076.693725585938	-96.61658477783203	-1154.473388671875	1068.313232421875	-18.92809867858887	-1157.13525390625	840.8681030273438	-98.87089538574219	-1237.543090820312	850.7178344726562	-82.96167755126953	-1214.843994140625	974.6314697265625	-88.91572570800781	-1242.033081054688	765.9584350585938	-59.73111343383789	-1187.21728515625	744.244384765625	-85.49788665771484	-783.3038940429688	1353.4140625	19.43646812438965	-741.3129272460938	1289.354125976562	64.12925720214844	-680.9274291992188	1030.214233398438	77.22341156005859	-769.8522338867188	1010.921997070312	52.17001724243164	-614.5321044921875	950.4110107421875	-144.3614349365234	-566.7239990234375	913.123046875	-101.8064117431641	-643.558837890625	990.2783813476562	35.73075866699219	-559.5829467773438	828.9200439453125	-257.7785034179688	-562.2642211914062	889.8377075195312	-217.2916870117188	-543.7760620117188	853.1815795898438	-161.9845275878906	-854.8936157226562	1557.017333984375	12.78229808807373	-871.8062744140625	1574.6064453125	-185.5630798339844	-785.030517578125	1567.00927734375	-100.9899597167969	-980.584228515625	1564.982177734375	-85.46904754638672	-1107.217651367188	948.1554565429688	-130.8500823974609	-784.6597290039062	914.977294921875	19.36944389343262	-774.7462768554688	927.4445190429688	-124.1797637939453	-1020.565246582031	948.2549438476562	-216.5800018310547	-1043.716552734375	503.7877807617188	-347.9709167480469	-1067.176635742188	625.9431762695312	-286.11181640625	-1076.016967773438	48.31494522094727	-396.6426391601562	-1076.942626953125	271.1404418945312	-378.1611938476562	-942.4130249023438	105.6589736938477	-558.6160278320312	-940.4605102539062	80.67416381835938	-479.0782470703125	-1040.23828125	75.17607116699219	-515.26611328125	-1039.009887695312	33.74272155761719	-341.98583984375	-900.79248046875	433.815185546875	-41.03326797485352	-800.611572265625	681.3556518554688	-64.18013000488281	-1034.75537109375	54.07627105712891	68.40521240234375	-949.1071166992188	312.2003784179688	-40.77353668212891	-1090.002685546875	39.69789505004883	-113.9159545898438	-1026.427001953125	48.22152709960938	-13.88962459564209	-1092.419311523438	49.98220825195312	140.2021789550781	-1198.0234375	677.7166748046875	-30.30764389038086	-1114.488403320312	55.18547058105469	-45.19565582275391	nan	nan	nan	nan	nan	nan	nan	nan	nan	
254	2.53	-920.5628662109375	945.651123046875	36.70443344116211	-1043.1923828125	943.9635620117188	-15.74293613433838	-972.701904296875	1026.686767578125	18.08930015563965	-851.1663208007812	1176.832397460938	-199.5420227050781	-973.752197265625	1132.289672851562	26.59306526184082	-942.5932006835938	1378.90625	-15.94925975799561	-868.236572265625	1296.684326171875	-151.0341949462891	-913.9118041992188	1232.271728515625	56.59743499755859	-1040.154174804688	1350.499877929688	-49.39987564086914	-1045.299438476562	1364.320678710938	-149.9185943603516	-1134.058837890625	1264.840454101562	-134.3908081054688	-1187.390869140625	1075.104248046875	-107.5817031860352	-1152.494750976562	1067.283935546875	-29.68712425231934	-1154.473022460938	839.3059692382812	-108.381477355957	-1235.039184570312	849.0528564453125	-93.04579162597656	-1212.405883789062	973.0382080078125	-99.49158477783203	-1239.130249023438	764.2883911132812	-69.34375762939453	-1184.341552734375	742.7040405273438	-94.8516845703125	-782.1048583984375	1351.21826171875	11.39214324951172	-740.7244262695312	1286.904418945312	56.55479049682617	-679.9707641601562	1027.758422851562	68.82803344726562	-768.4757690429688	1008.372131347656	42.57746887207031	-610.27587890625	950.4682006835938	-152.5226898193359	-562.7759399414062	913.3021240234375	-109.5888977050781	-641.7971801757812	988.5253295898438	27.57599830627441	-552.6851806640625	830.1851196289062	-265.8232116699219	-556.40185546875	890.8842163085938	-225.0947723388672	-538.3685913085938	853.9993286132812	-169.7631072998047	-853.7099609375	1554.975830078125	3.605734586715698	-868.3946533203125	1572.582763671875	-194.9130096435547	-782.6041870117188	1565.153076171875	-109.2993087768555	-978.2821655273438	1562.704467773438	-96.1268310546875	-1104.028198242188	946.0997314453125	-144.2337341308594	-783.7490234375	912.88916015625	11.4151668548584	-771.7657470703125	924.9420776367188	-131.7800903320312	-1015.746887207031	946.2210693359375	-228.4088592529297	-1038.495361328125	500.7401123046875	-357.8200378417969	-1062.734985351562	623.4265747070312	-296.4342346191406	-1058.159301757812	46.02820587158203	-424.2201843261719	-1065.498901367188	268.8171691894531	-396.705078125	-919.4288940429688	112.395866394043	-578.6365966796875	-920.2766723632812	84.96298217773438	-499.8764953613281	-1017.941284179688	77.35521697998047	-540.3947143554688	-1023.120422363281	30.92814826965332	-368.4187622070312	-900.210205078125	432.2442016601562	-47.64109802246094	-798.9126586914062	679.29736328125	-70.99268341064453	-1035.417358398438	54.71154022216797	68.16732788085938	-948.8278198242188	310.4724731445312	-46.02649307250977	-1089.745727539062	39.5200080871582	-114.2000579833984	-1026.686645507812	48.37523651123047	-14.05539417266846	-1093.293090820312	51.70907974243164	139.8338470458984	-1195.444458007812	676.288330078125	-39.62585067749023	-1116.0283203125	53.92765045166016	-44.67664337158203	nan	nan	nan	nan	nan	nan	nan	nan	nan	
